<svg width="128px" height="128px" version="1.1" id="happy-cat_svg__Layer_1" xmlns="http://www.w3.org/2000/svg" x="0" y="0" viewBox="116.1 134.9 788 720.4" xml:space="preserve"><style>.happy-cat_svg__st1{fill:none;stroke-width:6;stroke-linecap:round;stroke-linejoin:round;stroke-miterlimit:10}.happy-cat_svg__st1,.happy-cat_svg__st3,.happy-cat_svg__st4{stroke:#e5e5e5}.happy-cat_svg__st3,.happy-cat_svg__st4,.happy-cat_svg__st5,.happy-cat_svg__st7{fill:none;stroke-linecap:round;stroke-linejoin:round;stroke-miterlimit:10}.happy-cat_svg__st3{stroke-width:4}.happy-cat_svg__st4{stroke-width:8}.happy-cat_svg__st5,.happy-cat_svg__st7{stroke:#a83727;stroke-width:6}.happy-cat_svg__st7{stroke:#465172}.happy-cat_svg__st11{fill:#f78a21}.happy-cat_svg__st12{opacity:.26;fill:#9b463d}.happy-cat_svg__st13{fill:#a83727}.happy-cat_svg__st15{fill:none;stroke:#a83727;stroke-width:2;stroke-linecap:round;stroke-linejoin:round;stroke-miterlimit:10}</style><g id="happy-cat_svg__XMLID_278_"><path id="happy-cat_svg__XMLID_285_" class="happy-cat_svg__st1" d="M243.9 634.7v30.9H182"></path><path id="happy-cat_svg__XMLID_284_" class="happy-cat_svg__st1" d="M305.7 665.6h-61.8v-30.9"></path><path id="happy-cat_svg__XMLID_283_" class="happy-cat_svg__st1" d="M212.9 665.6h61.9v30.9h-61.9z"></path><path id="happy-cat_svg__XMLID_282_" class="happy-cat_svg__st1" d="M261.4 727.5h-17.5v-31h61.8"></path><path id="happy-cat_svg__XMLID_281_" class="happy-cat_svg__st1" d="M182 696.5h61.9v31h-50.2"></path><path id="happy-cat_svg__XMLID_280_" class="happy-cat_svg__st1" d="M160.9 665.6h52v30.9H182"></path><path id="happy-cat_svg__XMLID_279_" class="happy-cat_svg__st1" d="M319.4 696.5h-44.6v-30.9h21.4"></path></g><g id="happy-cat_svg__XMLID_2_"><path id="happy-cat_svg__XMLID_49_" class="happy-cat_svg__st1" d="M817.6 441.4v30.9h61.9"></path><path id="happy-cat_svg__XMLID_38_" class="happy-cat_svg__st1" d="M755.8 472.3h61.8v-30.9"></path><path id="happy-cat_svg__XMLID_37_" transform="rotate(-180 817.643 487.814)" class="happy-cat_svg__st1" d="M786.7 472.3h61.9v30.9h-61.9z"></path><path id="happy-cat_svg__XMLID_26_" class="happy-cat_svg__st1" d="M800.1 534.2h17.5v-30.9h-61.8"></path><path id="happy-cat_svg__XMLID_8_" class="happy-cat_svg__st1" d="M879.5 503.3h-61.9v30.9h50.2"></path><path id="happy-cat_svg__XMLID_4_" class="happy-cat_svg__st1" d="M900.6 472.3h-52v31h30.9"></path><path id="happy-cat_svg__XMLID_3_" class="happy-cat_svg__st1" d="M742.1 503.3h44.6v-31h-21.4"></path></g><g id="happy-cat_svg__XMLID_288_"><circle id="happy-cat_svg__XMLID_175_" class="happy-cat_svg__st1" cx="587" cy="251.9" r="56"></circle><path id="happy-cat_svg__XMLID_178_" class="happy-cat_svg__st1" d="M587 201.6v5.4"></path><path id="happy-cat_svg__XMLID_179_" class="happy-cat_svg__st1" d="M587 296.7v5.4"></path><path id="happy-cat_svg__XMLID_180_" class="happy-cat_svg__st1" d="M637.3 251.9h-5.4"></path><path id="happy-cat_svg__XMLID_177_" class="happy-cat_svg__st1" d="M542.2 251.9h-5.5"></path><circle id="happy-cat_svg__XMLID_181_" cx="587" cy="251.9" r="4.5" fill="#e5e5e5"></circle><path id="happy-cat_svg__XMLID_183_" class="happy-cat_svg__st3" d="M587 251.9l24.2-29.9"></path><path id="happy-cat_svg__XMLID_184_" class="happy-cat_svg__st1" d="M571.8 236.9l15.2 15"></path></g><g id="happy-cat_svg__XMLID_23_"><path id="happy-cat_svg__XMLID_22_" class="happy-cat_svg__st4" d="M135.8 252.9h123.3v125.3H135.8z"></path><path id="happy-cat_svg__XMLID_114_" transform="rotate(90 197.49 315.605)" class="happy-cat_svg__st3" d="M154.3 271.2h86.5v88.9h-86.5z"></path><path id="happy-cat_svg__XMLID_18_" class="happy-cat_svg__st4" d="M289.2 213h108.6v77.8H289.2z"></path><path id="happy-cat_svg__XMLID_122_" transform="rotate(90 343.54 251.85)" class="happy-cat_svg__st3" d="M320.6 213.5h45.9v76.7h-45.9z"></path><path id="happy-cat_svg__XMLID_115_" transform="rotate(90 329.014 376.433)" class="happy-cat_svg__st3" d="M292.7 352.6h72.6v47.7h-72.6z"></path><path id="happy-cat_svg__XMLID_17_" class="happy-cat_svg__st4" d="M289.2 324.2h79.6v104.5h-79.6z"></path></g><path id="happy-cat_svg__XMLID_59_" class="happy-cat_svg__st5" d="M833.8 784.2h7.9"></path><path id="happy-cat_svg__XMLID_56_" class="happy-cat_svg__st5" d="M802.3 784.2h18.5"></path><path id="happy-cat_svg__XMLID_54_" class="happy-cat_svg__st5" d="M473 784.2h315.3"></path><path id="happy-cat_svg__XMLID_53_" class="happy-cat_svg__st5" d="M200 784.2h252"></path><path id="happy-cat_svg__XMLID_52_" class="happy-cat_svg__st5" d="M156.5 784.2h22"></path><path id="happy-cat_svg__XMLID_57_" class="happy-cat_svg__st5" d="M126.5 784.2h12"></path><path id="happy-cat_svg__XMLID_28_" d="M330.9 674.4c-18.2-11.6-50.3-32-64.2-74.4-9.7-29.6-9.9-66.8.5-70.3 12.1-4 33.2 38.8 40.9 35.1 6.1-2.9-6.6-29.4-8.3-74.3-1.2-30.6 3.2-56.9 17-80.3 6.3-10.7 10.9-18.6 16-18 20.9 2.4 15 144 37.3 146.7 10.5 1.3 18.9-29.2 30.7-26.7 10 2.1 16.7 26.8 18.5 42.8.1.8.2 1.4.2 1.9 5.2 51.9-25.1 89.3-35.3 102-15.3 18.8-25.6 22.6-33.6 22.7-8.4-.1-14.8-4-19.7-7.2z" fill="#6dcca3"></path><path id="happy-cat_svg__XMLID_41_" class="happy-cat_svg__st7" d="M325.5 477c3.5 37 24.5 93.3 27.6 141 2 31.1.1 58.5-3 81"></path><path id="happy-cat_svg__XMLID_25_" d="M422 784.2H267c-15.6-27.6-15-61.5 1.5-88.5l22.8-37.3h106.3l22.1 34.5c16.4 25.5 18.3 57.8 5.2 85.1l-2.9 6.2z" fill="#2359b2"></path><path id="happy-cat_svg__XMLID_44_" class="happy-cat_svg__st7" d="M375 561.9s-.4 17-23.8 39.1"></path><path id="happy-cat_svg__XMLID_47_" class="happy-cat_svg__st7" d="M301.1 601s15.7 32 52.8 32"></path><path id="happy-cat_svg__XMLID_48_" d="M382.3 684.8s23.6 15.4 23.6 52.3" opacity=".67" fill="none" stroke="#1e2a54" stroke-width="6" stroke-linecap="round" stroke-linejoin="round" stroke-miterlimit="10"></path><path id="happy-cat_svg__XMLID_14_" d="M523.6 794c0 29.2 49.9 53 111.4 53 48.2 0 89.2-14.5 104.7-34.9l-116.5 8.4-99.6-26.5z" fill="#d6d6d6"></path><path id="happy-cat_svg__XMLID_15_" class="happy-cat_svg__st11" d="M723.7 791.1c-2.9-.6-6-.3-8.7.8-17.6 6.9-48.4 11.5-83.4 11.5-54.7 0-99-11.2-99-25 0-12.2 34.7-22.4 80.6-24.6l3.2-16.7c-62.9 3.9-110.7 23.4-110.7 46.8 0 26.2 60 47.5 134 47.5 32.4 0 62.1-4.1 85.3-10.9 15-4.5 14.1-26.2-1.3-29.4z"></path><path id="happy-cat_svg__XMLID_51_" class="happy-cat_svg__st12" d="M671.1 801.3l48-10.5s12.6 1.3 14.9 8c4 11.4-4.2 18.4-4.2 18.4s-3.1-26.4-58.7-15.9z"></path><path id="happy-cat_svg__XMLID_21_" class="happy-cat_svg__st5" d="M723.7 791.1c-2.9-.6-6-.3-8.7.8-17.6 6.9-48.4 11.5-83.4 11.5-54.7 0-99-11.2-99-25 0-12.2 34.7-22.4 80.6-24.6l3.2-16.7c-62.9 3.9-110.7 23.4-110.7 46.8 0 26.2 60 47.5 134 47.5 32.4 0 62.1-4.1 85.3-10.9 15-4.5 14.1-26.2-1.3-29.4z"></path><path id="happy-cat_svg__XMLID_27_" class="happy-cat_svg__st11" d="M714.3 439.9c-16-5.1-33.7-8-52.2-8-18.4 0-35.9 2.8-51.9 7.8-9.7-22.7-22.9-41.2-36.8-52.7-2.2-1.8-5.5-1.2-6.9 1.3-27.7 50.1-40.1 107.4-34.9 169.9 4.8 69.8 31.7 146.5 57.2 225.8h146.8c25.6-79.2 52.2-155.1 57.2-224 5.5-62.9-7.1-120.4-35.6-171-1.4-2.5-4.7-3.1-6.9-1.3-13.6 11.6-26.5 29.8-36 52.2z"></path><path id="happy-cat_svg__XMLID_55_" class="happy-cat_svg__st12" d="M674.4 533.9c0 3.7-5.5 6.7-12.4 6.7-6.8 0-12.4-3-12.4-6.7l12.5-2.8 12.3 2.8z"></path><path id="happy-cat_svg__XMLID_40_" class="happy-cat_svg__st12" d="M713.3 782.6s0-7.9 1.5-14.5c13.2-58.7 4.5-76.8 4.5-76.8l-27.8 91.5 21.8-.2z"></path><path id="happy-cat_svg__XMLID_42_" class="happy-cat_svg__st12" d="M608.8 782.6s0-7.9-1.5-14.5c-13.2-58.7-4.5-76.8-4.5-76.8l27.8 91.5-21.8-.2z"></path><path id="happy-cat_svg__XMLID_16_" class="happy-cat_svg__st5" d="M714.3 439.9c-16-5.1-33.7-8-52.2-8-18.4 0-35.9 2.8-51.9 7.8-9.7-22.7-22.9-41.2-36.8-52.7-2.2-1.8-5.5-1.2-6.9 1.3-27.7 50.1-40.1 107.4-34.9 169.9 4.8 69.8 31.7 146.5 57.2 225.8h146.8c25.6-79.2 52.2-155.1 57.2-224 5.5-62.9-7.1-120.4-35.6-171-1.4-2.5-4.7-3.1-6.9-1.3-13.6 11.6-26.5 29.8-36 52.2z"></path><circle id="happy-cat_svg__XMLID_6_" class="happy-cat_svg__st13" cx="620.6" cy="479.8" r="8"></circle><circle id="happy-cat_svg__XMLID_12_" class="happy-cat_svg__st13" cx="703.6" cy="479.8" r="8"></circle><path id="happy-cat_svg__XMLID_13_" class="happy-cat_svg__st13" d="M668.8 506.7c-4.4-.4-8.8-.4-13.2 0-2.1.2-2.8 2.3-1.2 3.4 1.4.9 2.8 1.8 4.2 2.8 2 1.4 5.3 1.4 7.3 0 1.4-1 2.8-1.9 4.2-2.8 1.5-1.1.7-3.2-1.3-3.4z"></path><g id="happy-cat_svg__XMLID_32_"><path id="happy-cat_svg__XMLID_39_" class="happy-cat_svg__st11" d="M719.1 694.2c-1.7 29.5-15.4 60.5-24.8 90h-32.2l.2-83.1"></path><path id="happy-cat_svg__XMLID_34_" class="happy-cat_svg__st11" d="M605 694.2c1.7 29.5 18.4 60.5 27.8 90H662l-.2-83.1"></path></g><g id="happy-cat_svg__XMLID_5_"><path id="happy-cat_svg__XMLID_10_" class="happy-cat_svg__st5" d="M680.5 533c-1.8 1-4 1.6-6.2 1.6-6.7 0-12.1-4.9-12.1-10.9"></path><path id="happy-cat_svg__XMLID_7_" class="happy-cat_svg__st5" d="M643.7 533c1.8 1 4 1.6 6.2 1.6 6.7 0 12.1-4.9 12.1-10.9"></path></g><g id="happy-cat_svg__XMLID_29_"><path id="happy-cat_svg__XMLID_11_" class="happy-cat_svg__st5" d="M719.1 694.2c-1.7 29.5-18.4 60.5-27.8 90h-29.2l.2-83.1"></path><path id="happy-cat_svg__XMLID_30_" class="happy-cat_svg__st5" d="M605 694.2c1.7 29.5 15.4 60.5 24.8 90H662l-.2-83.1"></path></g><path id="happy-cat_svg__XMLID_31_" class="happy-cat_svg__st12" d="M729.1 451.4c7.4-22.7 18.2-28.5 18.2-28.5s7.8 2.9 7.8 33.8"></path><path id="happy-cat_svg__XMLID_33_" class="happy-cat_svg__st12" d="M595.1 451.4c-7.4-22.7-18.2-28.5-18.2-28.5s-7.8 2.9-7.8 33.8"></path><path id="happy-cat_svg__XMLID_45_" class="happy-cat_svg__st5" d="M644.3 772.2l2.5 11.3"></path><path id="happy-cat_svg__XMLID_46_" class="happy-cat_svg__st5" d="M679.9 772.2l-2.5 11.3"></path><g id="happy-cat_svg__XMLID_1_" opacity=".24"><path id="happy-cat_svg__XMLID_19_" class="happy-cat_svg__st15" d="M707 528.7c12.1 3.2 24.6 3.8 36.6 2"></path><path id="happy-cat_svg__XMLID_20_" class="happy-cat_svg__st15" d="M703.6 536.3c11 7 22.4 11.8 33.4 14.3"></path><path id="happy-cat_svg__XMLID_35_" class="happy-cat_svg__st15" d="M707 517.9c9.9-.7 20.1-3.4 30-8.1"></path><path id="happy-cat_svg__XMLID_50_" class="happy-cat_svg__st15" d="M617.2 528.7c-12.1 3.2-24.6 3.8-36.6 2"></path><path id="happy-cat_svg__XMLID_43_" class="happy-cat_svg__st15" d="M620.6 536.3c-11 7-22.4 11.8-33.4 14.3"></path><path id="happy-cat_svg__XMLID_36_" class="happy-cat_svg__st15" d="M617.2 517.9c-9.9-.7-20.1-3.4-30-8.1"></path></g></svg>